<svg width="596" height="495" viewBox="0 0 596 495" fill="none" xmlns="http://www.w3.org/2000/svg">
<path d="M438.06 175.499C438.56 166.519 438.24 157.509 437.21 148.639C435.84 134.729 431.53 121.299 425.98 108.679L421.5 99.3491L416.18 90.4891C414.52 87.4791 412.34 84.7991 410.32 82.0191C408.25 79.2891 406.32 76.4591 403.87 74.0291C394.96 63.6191 384.15 55.1291 372.94 47.7691C355.52 37.0991 336.79 30.4091 317.07 28.5691C315.29 28.3991 313.6 28.1891 311.67 28.1091C304.08 28.0791 288.27 28.0391 288.27 28.0391C274.69 28.0491 260.88 28.0991 247.29 28.1091C246.67 28.1091 246.06 28.1591 245.41 28.1891C245.41 29.1291 245.41 29.9091 245.41 30.6191C248.01 30.9191 250.49 31.0791 252.93 31.4991C261.64 33.0091 266.63 38.8491 266.63 47.5091C266.64 112.929 266.64 125.359 266.63 174.839L158.6 174.399H156.99C156.99 174.539 156.99 178.469 156.99 178.609C157.05 191.339 159.03 204.239 162.99 216.689C167.01 229.269 173.17 241.239 180.79 252.349C188.57 263.349 198.2 273.119 208.95 281.539C214.28 285.839 220.12 289.449 226.17 292.699C232.03 296.339 238.55 298.669 244.86 301.529C257.88 306.169 271.54 309.469 285.51 310.219C299.43 310.799 313.52 309.969 327.21 306.759C354.53 300.269 379.93 285.619 399.38 265.109C408.9 254.699 417.19 243.119 423.26 230.419C426.67 224.249 428.9 217.539 431.43 210.979C432.53 207.639 433.34 204.209 434.29 200.819L435.62 195.719L436.42 190.499C437.12 186.629 437.58 182.729 437.9 178.829M288.22 32.8491C288.22 32.4391 288.22 31.9791 288.22 31.5291C289.95 31.5291 293.2 31.5391 296.83 31.5391C302.72 31.8291 308.38 31.1191 314.95 32.3491C333.96 35.9191 352.17 43.6491 367.87 54.9391C388.31 69.6691 404.61 90.1291 413.86 113.569C421.69 133.089 424.77 154.509 422.76 175.439L288.23 174.909C288.22 129.359 288.22 69.2891 288.22 32.8491ZM421.05 187.609L420.23 192.249L418.97 196.789C418.08 199.799 417.35 202.859 416.33 205.829C413.97 211.649 411.98 217.629 408.84 223.089C403.33 234.379 395.78 244.589 387.28 253.769C370.23 272.209 347.7 285.359 323.38 291.649C311.21 294.859 298.58 295.909 286.02 295.739C273.43 295.319 261.02 292.849 248.98 289.179C243.17 286.789 237.1 284.959 231.61 281.839C225.94 279.099 220.45 275.999 215.3 272.359C204.95 265.199 195.52 256.649 187.6 246.849C179.7 237.039 173.13 226.139 168.21 214.519C163.63 203.459 160.52 191.799 158.92 179.919L266.64 179.489C266.64 187.069 266.64 195.489 266.64 205.039C266.64 213.759 261.99 219.449 253.46 221.109C250.83 221.619 248.13 221.789 245.39 222.129C245.39 222.919 245.39 223.699 245.39 224.549C266.81 224.549 288.13 224.549 309.45 224.549C309.45 223.619 309.45 222.799 309.45 222.019C307.23 221.819 305.15 221.709 303.1 221.449C293.47 220.189 288.22 214.199 288.22 204.499C288.22 197.039 288.22 188.519 288.22 179.399L422.42 178.869C422.06 181.799 421.62 184.719 421.05 187.609Z" fill="#CAC1C0"/>
<path d="M30.0898 413.79V344.57H43.1298C48.9098 344.57 53.8998 345.15 58.0998 346.3C62.2998 347.45 66.2998 349.65 70.1198 352.91C73.9698 356.21 76.8498 360.11 78.7498 364.6C80.6498 369.09 81.5998 373.98 81.5998 379.27C81.5998 389.76 77.8298 398.36 70.2998 405.07C66.4598 408.49 62.4398 410.8 58.2498 412C54.0598 413.19 48.9598 413.79 42.9498 413.79H30.0898ZM37.7998 406.63H43.3998C48.0798 406.63 52.1498 406.13 55.6298 405.12C59.1098 404.11 62.3198 402.23 65.2598 399.46C68.0698 396.83 70.2098 393.76 71.6798 390.26C73.1498 386.76 73.8898 383.06 73.8898 379.18C73.8898 375.16 73.1198 371.34 71.5898 367.73C70.0598 364.11 67.8298 361.01 64.8998 358.42C61.9598 355.81 58.7898 354.04 55.4098 353.11C52.0298 352.19 48.0298 351.72 43.4098 351.72H37.8098V406.63H37.7998Z" fill="#CAC1C0"/>
<path d="M96.9199 413.79V344.57H132.83V351.72H104.63V372.3H132V379.45H104.63V406.64H132.83V413.79H96.9199Z" fill="#CAC1C0"/>
<path d="M203.33 350.129V359.679C200.58 356.809 197.36 354.559 193.68 352.939C189.99 351.319 186.17 350.509 182.21 350.509C178.42 350.509 174.83 351.259 171.44 352.769C168.06 354.279 165.07 356.389 162.48 359.089C159.89 361.779 157.88 364.869 156.45 368.339C155.01 371.809 154.3 375.419 154.3 379.169C154.3 384.179 155.56 388.889 158.09 393.309C160.62 397.729 164.04 401.249 168.36 403.879C172.68 406.509 177.36 407.829 182.41 407.829C186.22 407.829 189.97 406.999 193.64 405.329C197.32 403.669 200.54 401.429 203.32 398.639V408.189C200.3 410.369 197.01 412.049 193.44 413.219C189.88 414.389 186.29 414.979 182.67 414.979C176.27 414.979 170.3 413.389 164.74 410.209C159.18 407.029 154.76 402.709 151.49 397.269C148.22 391.819 146.58 385.889 146.58 379.459C146.58 372.989 148.2 366.979 151.44 361.429C154.68 355.879 159.08 351.479 164.63 348.239C170.18 344.999 176.19 343.379 182.66 343.379C190.36 343.359 197.25 345.619 203.33 350.129Z" fill="#CAC1C0"/>
<path d="M260.901 394.13H231.341L222.981 413.79H214.551L246.491 341.26L277.631 413.79H269.091L260.901 394.13ZM257.881 386.98L246.311 359.25L234.451 386.98H257.881Z" fill="#CAC1C0"/>
<path d="M289.721 413.79V344.57H301.111C305.611 344.57 309.571 345.17 313.001 346.37C316.431 347.57 319.161 349.57 321.191 352.36C323.221 355.15 324.231 358.79 324.231 363.29C324.231 369.27 321.971 373.77 317.441 376.78C320.131 377.44 322.471 378.64 324.461 380.38C326.451 382.12 327.961 384.22 329.011 386.69C330.051 389.15 330.581 391.76 330.581 394.51C330.581 401.03 328.291 405.87 323.701 409.04C319.111 412.21 313.141 413.79 305.791 413.79H289.721ZM297.441 351.72V375.03H300.381C303.821 375.03 306.671 374.78 308.951 374.26C311.231 373.75 313.061 372.63 314.461 370.92C315.851 369.21 316.541 366.67 316.541 363.29C316.541 359.99 315.891 357.5 314.601 355.82C313.301 354.14 311.541 353.03 309.321 352.51C307.091 351.99 304.151 351.73 300.491 351.73H297.441V351.72ZM297.441 381.64V406.63H305.151C316.971 406.63 322.881 402.4 322.881 393.94C322.881 389.13 321.111 385.88 317.581 384.18C314.041 382.48 309.561 381.63 304.141 381.63H297.441V381.64Z" fill="#CAC1C0"/>
<path d="M354.19 383.39V413.79H346.48V344.57H356.5C361.35 344.57 365.65 345.12 369.38 346.19C373.12 347.27 376.12 349.23 378.41 352.05C380.69 354.87 381.83 358.74 381.83 363.66C381.83 366.26 381.43 368.69 380.62 370.95C379.81 373.21 378.66 375.17 377.14 376.84C375.63 378.51 373.81 379.85 371.69 380.86C369.57 381.87 367.16 382.5 364.47 382.75L386.5 413.77H377.04L356.11 383.37H354.19V383.39ZM354.19 351.72V376.6H356.59C361.88 376.6 366.12 375.75 369.32 374.06C372.52 372.37 374.11 369.08 374.11 364.21C374.11 359.07 372.59 355.7 369.56 354.11C366.53 352.52 362.18 351.72 356.5 351.72H354.19Z" fill="#CAC1C0"/>
<path d="M408.739 344.57V413.79H401.029V344.57H408.739Z" fill="#CAC1C0"/>
<path d="M427.84 413.791V341.641L481.81 398.191V344.571H489.52V416.901L435.55 360.441V413.791H427.84Z" fill="#CAC1C0"/>
<path d="M548.459 394.13H518.899L510.539 413.79H502.109L534.049 341.26L565.189 413.79H556.649L548.459 394.13ZM545.439 386.98L533.869 359.25L522.009 386.98H545.439Z" fill="#CAC1C0"/>
<path d="M94.8498 461.548V463.018H84.0898V444.898H85.7098V461.548H94.8498Z" fill="#CAC1C0"/>
<path d="M97.6406 444.898H99.2606V463.018H97.6406V444.898Z" fill="#CAC1C0"/>
<path d="M117.039 463.399L105.479 448.899V463.029H103.879V444.529L115.459 458.879V444.899H117.029V463.399H117.039Z" fill="#CAC1C0"/>
<path d="M138.009 452.939V459.949C136.139 462.119 133.419 463.339 130.469 463.339C125.279 463.339 121.109 459.119 121.109 453.929C121.109 448.759 125.179 444.539 130.599 444.539C133.399 444.539 135.889 445.639 137.609 447.309L136.639 448.479C135.239 447.129 133.069 446.009 130.599 446.009C126.079 446.009 122.709 449.509 122.709 453.919C122.709 458.239 126.279 461.859 130.499 461.859C132.749 461.859 135.139 460.859 136.569 459.259V454.389H131.249V452.919H138.009V452.939Z" fill="#CAC1C0"/>
<path d="M144.12 446.348V452.888H151.61V454.358H144.12V461.548H152.78V463.018H143H142.5V444.898H144.12H152.78V446.348H144.12Z" fill="#CAC1C0"/>
<path d="M168.56 461.478V462.998C168.26 463.098 167.89 463.118 167.61 463.118C163.34 463.118 163.39 455.158 159.72 455.158H158.55V463.018H156.98V444.898H158.55H162.44C166.46 444.898 168.16 447.268 168.16 449.938C168.16 453.208 165.81 455.028 162.54 455.028H162.47C164.64 456.098 165.32 461.568 167.71 461.568C167.96 461.578 168.26 461.578 168.56 461.478ZM161.4 453.688C164.35 453.688 166.69 452.888 166.69 449.898C166.69 447.878 165.47 446.378 162.57 446.378H158.55V453.688H161.4Z" fill="#CAC1C0"/>
<path d="M171.359 444.898H172.979V463.018H171.359V444.898Z" fill="#CAC1C0"/>
<path d="M179.22 446.348V452.888H186.71V454.358H179.22V461.548H187.88V463.018H178.09H177.59V444.898H179.21H187.87V446.348H179.22Z" fill="#CAC1C0"/>
<path d="M199.561 454.209C199.561 452.659 200.811 451.459 202.361 451.459C203.911 451.459 205.161 452.659 205.161 454.209C205.161 455.759 203.911 457.029 202.361 457.029C200.811 457.029 199.561 455.759 199.561 454.209Z" fill="#CAC1C0"/>
<path d="M216.561 453.959C216.561 448.719 220.651 444.549 225.871 444.549C228.171 444.549 230.291 445.299 232.341 446.899L231.391 448.069C229.691 446.749 227.721 446.019 225.871 446.019C221.531 446.019 218.161 449.539 218.161 453.959C218.161 458.379 221.531 461.869 225.871 461.869C227.841 461.869 229.761 461.119 231.391 459.819L232.341 460.989C230.321 462.609 228.321 463.339 225.871 463.339C220.661 463.349 216.561 459.179 216.561 453.959Z" fill="#CAC1C0"/>
<path d="M246.369 461.548V463.018H235.609V444.898H237.229V461.548H246.369Z" fill="#CAC1C0"/>
<path d="M248.459 453.939C248.459 448.769 252.649 444.549 257.849 444.549C263.039 444.549 267.239 448.769 267.239 453.939C267.239 459.129 263.049 463.349 257.849 463.349C252.659 463.349 248.459 459.129 248.459 453.939ZM265.639 453.939C265.639 449.599 262.219 446.029 257.849 446.029C253.509 446.029 250.059 449.599 250.059 453.939C250.059 458.279 253.479 461.879 257.849 461.879C262.189 461.879 265.639 458.309 265.639 453.939Z" fill="#CAC1C0"/>
<path d="M281.59 446.368H276.1V463.018H274.45V446.368H268.93V444.898H281.59V446.368Z" fill="#CAC1C0"/>
<path d="M296.889 444.898V463.018H295.269V454.358H286.229V463.018H284.609V444.898H286.229V452.888H295.269V444.898H296.889Z" fill="#CAC1C0"/>
<path d="M303.749 446.348V452.888H311.239V454.358H303.749V461.548H312.409V463.018H302.619H302.119V444.898H303.739H312.399V446.348H303.749Z" fill="#CAC1C0"/>
<path d="M315.01 461.279L315.88 460.029C317.28 461.149 318.88 461.829 320.5 461.829C322.77 461.829 324.54 460.309 324.54 458.309C324.54 453.789 315.85 455.039 315.85 449.199C315.85 446.449 318 444.559 321.12 444.559C322.62 444.559 324.27 445.059 325.46 445.879L324.71 447.099C323.56 446.399 322.34 446.029 321.12 446.029C319.02 446.029 317.43 447.379 317.43 449.099C317.43 453.639 326.17 452.449 326.17 458.259C326.17 461.279 323.87 463.349 320.5 463.349C318.46 463.349 316.68 462.669 315.01 461.279Z" fill="#CAC1C0"/>
<path d="M337.15 454.209C337.15 452.659 338.4 451.459 339.95 451.459C341.5 451.459 342.75 452.659 342.75 454.209C342.75 455.759 341.5 457.029 339.95 457.029C338.4 457.029 337.15 455.759 337.15 454.209Z" fill="#CAC1C0"/>
<path d="M364.06 458.209H356.42L354.55 463.029H352.85L360.29 444.529L367.63 463.029H365.91L364.06 458.209ZM363.51 456.729L360.29 448.339L357.02 456.729H363.51Z" fill="#CAC1C0"/>
<path d="M368.551 453.959C368.551 448.719 372.641 444.549 377.861 444.549C380.161 444.549 382.281 445.299 384.331 446.899L383.381 448.069C381.681 446.749 379.711 446.019 377.861 446.019C373.521 446.019 370.151 449.539 370.151 453.959C370.151 458.379 373.521 461.869 377.861 461.869C379.831 461.869 381.751 461.119 383.381 459.819L384.331 460.989C382.311 462.609 380.311 463.339 377.861 463.339C372.651 463.349 368.551 459.179 368.551 453.959Z" fill="#CAC1C0"/>
<path d="M386.279 453.959C386.279 448.719 390.369 444.549 395.589 444.549C397.889 444.549 400.009 445.299 402.059 446.899L401.109 448.069C399.409 446.749 397.439 446.019 395.589 446.019C391.249 446.019 387.879 449.539 387.879 453.959C387.879 458.379 391.249 461.869 395.589 461.869C397.559 461.869 399.479 461.119 401.109 459.819L402.059 460.989C400.039 462.609 398.039 463.339 395.589 463.339C390.369 463.349 386.279 459.179 386.279 453.959Z" fill="#CAC1C0"/>
<path d="M406.95 446.348V452.888H414.44V454.358H406.95V461.548H415.61V463.018H405.82H405.32V444.898H406.94H415.6V446.348H406.95Z" fill="#CAC1C0"/>
<path d="M418.199 461.279L419.069 460.029C420.469 461.149 422.069 461.829 423.689 461.829C425.959 461.829 427.729 460.309 427.729 458.309C427.729 453.789 419.039 455.039 419.039 449.199C419.039 446.449 421.189 444.559 424.309 444.559C425.809 444.559 427.459 445.059 428.649 445.879L427.899 447.099C426.749 446.399 425.529 446.029 424.309 446.029C422.209 446.029 420.619 447.379 420.619 449.099C420.619 453.639 429.359 452.449 429.359 458.259C429.359 461.279 427.059 463.349 423.689 463.349C421.649 463.349 419.879 462.669 418.199 461.279Z" fill="#CAC1C0"/>
<path d="M431.01 461.279L431.88 460.029C433.28 461.149 434.88 461.829 436.5 461.829C438.77 461.829 440.54 460.309 440.54 458.309C440.54 453.789 431.85 455.039 431.85 449.199C431.85 446.449 434 444.559 437.12 444.559C438.62 444.559 440.27 445.059 441.46 445.879L440.71 447.099C439.56 446.399 438.34 446.029 437.12 446.029C435.02 446.029 433.43 447.379 433.43 449.099C433.43 453.639 442.17 452.449 442.17 458.259C442.17 461.279 439.87 463.349 436.5 463.349C434.45 463.349 432.68 462.669 431.01 461.279Z" fill="#CAC1C0"/>
<path d="M444.34 453.939C444.34 448.769 448.53 444.549 453.73 444.549C458.93 444.549 463.12 448.769 463.12 453.939C463.12 459.129 458.93 463.349 453.73 463.349C448.53 463.349 444.34 459.129 444.34 453.939ZM461.51 453.939C461.51 449.599 458.09 446.029 453.72 446.029C449.38 446.029 445.93 449.599 445.93 453.939C445.93 458.279 449.35 461.879 453.72 461.879C458.07 461.879 461.51 458.309 461.51 453.939Z" fill="#CAC1C0"/>
<path d="M478.109 461.478V462.998C477.809 463.098 477.439 463.118 477.159 463.118C472.889 463.118 472.939 455.158 469.269 455.158H468.099V463.018H466.529V444.898H468.099H471.999C476.019 444.898 477.719 447.268 477.719 449.938C477.719 453.208 475.369 455.028 472.099 455.028H472.029C474.199 456.098 474.879 461.568 477.269 461.568C477.509 461.578 477.809 461.578 478.109 461.478ZM470.949 453.688C473.899 453.688 476.239 452.888 476.239 449.898C476.239 447.878 475.019 446.378 472.119 446.378H468.099V453.688H470.949Z" fill="#CAC1C0"/>
<path d="M480.91 444.898H482.53V463.018H480.91V444.898Z" fill="#CAC1C0"/>
<path d="M488.771 446.348V452.888H496.261V454.358H488.771V461.548H497.431V463.018H487.641H487.141V444.898H488.761H497.421V446.348H488.771Z" fill="#CAC1C0"/>
<path d="M500.029 461.279L500.899 460.029C502.299 461.149 503.899 461.829 505.519 461.829C507.789 461.829 509.559 460.309 509.559 458.309C509.559 453.789 500.869 455.039 500.869 449.199C500.869 446.449 503.019 444.559 506.139 444.559C507.639 444.559 509.289 445.059 510.479 445.879L509.729 447.099C508.579 446.399 507.359 446.029 506.139 446.029C504.039 446.029 502.449 447.379 502.449 449.099C502.449 453.639 511.189 452.449 511.189 458.259C511.189 461.279 508.889 463.349 505.519 463.349C503.469 463.349 501.699 462.669 500.029 461.279Z" fill="#CAC1C0"/>
</svg>
