<svg width="31" height="22" viewBox="0 0 31 22" fill="none" xmlns="http://www.w3.org/2000/svg">
<path d="M13.0007 16.334L11.334 10.5007M9.66732 1.33398L6.33398 6.33398M21.334 1.33398L24.6673 6.33398M18.0007 16.334L19.6673 10.5007M3.00065 6.33398C3.97398 6.33398 4.81732 7.01065 5.02898 7.96065L6.84065 16.114C7.39732 18.6157 7.67398 19.8673 8.58898 20.6006C9.50399 21.334 10.784 21.334 13.349 21.334H17.6523C20.2173 21.334 21.499 21.334 22.4123 20.6006C23.3273 19.8673 23.604 18.6173 24.1623 16.114L25.9723 7.96065C26.184 7.01065 27.0273 6.33398 28.0007 6.33398M1.33398 6.33398H29.6673" stroke="black" stroke-linecap="round"/>
</svg>
