<svg width="409" height="47" viewBox="0 0 409 47" fill="none" xmlns="http://www.w3.org/2000/svg">
<path d="M46.7204 24.5299C46.8026 23.0587 46.75 21.5826 46.5806 20.1294C46.3553 17.8505 45.6465 15.6502 44.7339 13.5826L43.9972 12.054L43.1223 10.6025C42.8493 10.1093 42.4909 9.67026 42.1587 9.21481C41.8183 8.76754 41.5009 8.30389 41.098 7.90578C39.6328 6.20028 37.8552 4.80933 36.0118 3.60352C33.1471 1.85542 30.0671 0.759378 26.8243 0.457925C26.5315 0.430073 26.2536 0.395669 25.9363 0.382562C24.6881 0.377647 22.0883 0.371094 22.0883 0.371094C19.8551 0.372732 17.5841 0.380924 15.3493 0.382562C15.2474 0.382562 15.1471 0.390754 15.0402 0.395669C15.0402 0.549672 15.0402 0.677462 15.0402 0.793783C15.4677 0.842933 15.8755 0.869146 16.2768 0.937956C17.7091 1.18534 18.5297 2.14213 18.5297 3.56092C18.5313 14.2789 18.5313 16.3153 18.5297 24.4218L0.764755 24.3497H0.5C0.5 24.3726 0.5 25.0165 0.5 25.0395C0.509867 27.125 0.835466 29.2385 1.48667 31.2782C2.14773 33.3392 3.16071 35.3003 4.41377 37.1205C5.69315 38.9227 7.27675 40.5233 9.04453 41.9028C9.92101 42.6073 10.8814 43.1987 11.8763 43.7312C12.8399 44.3275 13.9121 44.7093 14.9497 45.1778C17.0908 45.938 19.3371 46.4787 21.6344 46.6015C23.9235 46.6966 26.2405 46.5606 28.4917 46.0347C32.9843 44.9714 37.1612 42.5712 40.3597 39.211C41.9252 37.5055 43.2884 35.6083 44.2866 33.5276C44.8474 32.5168 45.2141 31.4175 45.6301 30.3427C45.811 29.7955 45.9442 29.2336 46.1004 28.6782L46.3191 27.8426L46.4507 26.9874C46.5658 26.3534 46.6414 25.7144 46.6941 25.0755M22.08 1.15913C22.08 1.09196 22.08 1.0166 22.08 0.942871C22.3645 0.942871 22.899 0.94451 23.4959 0.94451C24.4645 0.992021 25.3952 0.875699 26.4756 1.07721C29.6017 1.6621 32.5962 2.92853 35.178 4.77821C38.5393 7.19147 41.2197 10.5435 42.7408 14.3837C44.0284 17.5818 44.5349 21.0911 44.2044 24.5201L22.0817 24.4333C22.08 16.9707 22.08 7.12921 22.08 1.15913ZM43.9232 26.514L43.7883 27.2741L43.5811 28.0179C43.4348 28.5111 43.3147 29.0124 43.147 29.499C42.7589 30.4525 42.4317 31.4322 41.9153 32.3267C41.0092 34.1764 39.7677 35.8492 38.3699 37.3532C35.5661 40.3742 31.8612 42.5286 27.8619 43.5592C25.8606 44.0851 23.7837 44.2571 21.7183 44.2292C19.6479 44.1604 17.6071 43.7557 15.6272 43.1545C14.6718 42.7629 13.6736 42.4631 12.7708 41.9519C11.8384 41.503 10.9356 40.9952 10.0887 40.3988C8.38675 39.2258 6.83604 37.825 5.53364 36.2194C4.23453 34.6122 3.15413 32.8264 2.34507 30.9227C1.59191 29.1107 1.08049 27.2004 0.817376 25.2541L18.5313 25.1836C18.5313 26.4255 18.5313 27.805 18.5313 29.3696C18.5313 30.7982 17.7667 31.7304 16.3639 32.0024C15.9315 32.0859 15.4875 32.1138 15.0369 32.1695C15.0369 32.2989 15.0369 32.4267 15.0369 32.5659C18.5593 32.5659 22.0652 32.5659 25.5712 32.5659C25.5712 32.4136 25.5712 32.2792 25.5712 32.1515C25.2061 32.1187 24.8641 32.1007 24.527 32.0581C22.9434 31.8516 22.08 30.8703 22.08 29.2811C22.08 28.0589 22.08 26.663 22.08 25.1689L44.1485 25.082C44.0893 25.5621 44.0169 26.0405 43.9232 26.514Z" fill="#EEEEEE"/>
<path d="M81.916 44.7268V2.39453H89.8747C93.4023 2.39453 96.4479 2.74923 99.0112 3.45252C101.575 4.15582 104.016 5.50126 106.347 7.49495C108.697 9.51311 110.455 11.8982 111.614 14.6441C112.774 17.39 113.354 20.3805 113.354 23.6157C113.354 30.031 111.053 35.2904 106.457 39.394C104.114 41.4855 101.66 42.8982 99.1028 43.6321C96.5455 44.3599 93.4329 44.7268 89.7648 44.7268H81.916ZM86.6216 40.348H90.0394C92.8958 40.348 95.3798 40.0423 97.5037 39.4246C99.6277 38.8069 101.587 37.6572 103.381 35.9631C105.096 34.3547 106.402 32.4772 107.299 30.3368C108.197 28.1963 108.648 25.9335 108.648 23.5607C108.648 21.1022 108.178 18.766 107.245 16.5583C106.311 14.3444 104.95 12.4486 103.161 10.8647C101.367 9.26849 99.4324 8.18601 97.3694 7.61725C95.3066 7.05462 92.8652 6.76719 90.0455 6.76719H86.6277V40.348H86.6216Z" fill="#EEEEEE"/>
<path d="M122.705 44.7268V2.39453H144.622V6.76719H127.411V19.3531H144.115V23.7258H127.411V40.3542H144.622V44.7268H122.705Z" fill="#EEEEEE"/>
<path d="M187.65 5.79609V11.6365C185.971 9.88131 184.006 8.50531 181.76 7.51458C179.508 6.52385 177.176 6.02849 174.76 6.02849C172.446 6.02849 170.255 6.48714 168.186 7.4106C166.123 8.33406 164.299 9.62446 162.718 11.2757C161.137 12.9208 159.91 14.8105 159.038 16.9326C158.159 19.0547 157.725 21.2625 157.725 23.5558C157.725 26.6198 158.494 29.5002 160.039 32.2033C161.583 34.9064 163.67 37.0591 166.307 38.6675C168.943 40.2759 171.799 41.0832 174.882 41.0832C177.207 41.0832 179.496 40.5756 181.736 39.5543C183.982 38.5391 185.947 37.1692 187.644 35.4629V41.3034C185.8 42.6366 183.792 43.664 181.614 44.3795C179.441 45.095 177.25 45.4559 175.04 45.4559C171.134 45.4559 167.491 44.4835 164.097 42.5387C160.704 40.5939 158.006 37.952 156.01 34.6251C154.015 31.2921 153.014 27.6655 153.014 23.7332C153.014 19.7764 154.002 16.1009 155.98 12.7067C157.957 9.31256 160.643 6.62169 164.03 4.64023C167.417 2.65877 171.085 1.66805 175.034 1.66805C179.734 1.65582 183.939 3.03795 187.65 5.79609Z" fill="#EEEEEE"/>
<path d="M222.785 32.7044H204.743L199.641 44.7277H194.496L213.99 0.371094L232.995 44.7277H227.783L222.785 32.7044ZM220.941 28.3317L213.88 11.3731L206.642 28.3317H220.941Z" fill="#EEEEEE"/>
<path d="M240.375 44.7268V2.39453H247.327C250.073 2.39453 252.49 2.76146 254.583 3.49533C256.677 4.22921 258.343 5.45233 259.582 7.15858C260.821 8.86484 261.437 11.0909 261.437 13.843C261.437 17.5001 260.058 20.2521 257.293 22.0929C258.935 22.4966 260.363 23.2304 261.578 24.2945C262.792 25.3587 263.714 26.6429 264.355 28.1535C264.989 29.6579 265.313 31.2541 265.313 32.9359C265.313 36.9233 263.915 39.8833 261.114 41.8219C258.312 43.7606 254.669 44.7268 250.183 44.7268H240.375ZM245.087 6.76719V21.0227H246.881C248.981 21.0227 250.72 20.8698 252.112 20.5518C253.503 20.2399 254.62 19.555 255.474 18.5092C256.323 17.4634 256.744 15.91 256.744 13.843C256.744 11.8248 256.347 10.302 255.56 9.2746C254.766 8.24718 253.692 7.56834 252.337 7.25033C250.976 6.93232 249.182 6.77331 246.948 6.77331H245.087V6.76719ZM245.087 25.0651V40.348H249.792C257.006 40.348 260.613 37.7611 260.613 32.5873C260.613 29.6457 259.533 27.6581 257.379 26.6185C255.218 25.5788 252.484 25.059 249.176 25.059H245.087V25.0651Z" fill="#EEEEEE"/>
<path d="M279.721 26.1354V44.7268H275.016V2.39453H281.131C284.091 2.39453 286.716 2.73089 288.992 3.38526C291.275 4.04574 293.106 5.2444 294.503 6.969C295.895 8.6936 296.591 11.0604 296.591 14.0692C296.591 15.6593 296.346 17.1454 295.852 18.5275C295.358 19.9097 294.656 21.1083 293.728 22.1296C292.807 23.1509 291.696 23.9704 290.402 24.5881C289.108 25.2058 287.637 25.5911 285.995 25.7439L299.441 44.7146H293.667L280.893 26.1231H279.721V26.1354ZM279.721 6.76719V21.9828H281.186C284.415 21.9828 287.002 21.463 288.955 20.4295C290.908 19.3959 291.879 17.3839 291.879 14.4056C291.879 11.2622 290.951 9.2012 289.102 8.22882C287.253 7.25643 284.598 6.76719 281.131 6.76719H279.721Z" fill="#EEEEEE"/>
<path d="M313.016 2.39453V44.7268H308.311V2.39453H313.016Z" fill="#EEEEEE"/>
<path d="M324.674 44.7277V0.603516L357.613 35.1873V2.39539H362.319V46.6296L329.379 12.1009V44.7277H324.674Z" fill="#EEEEEE"/>
<path d="M398.291 32.7044H380.249L375.147 44.7277H370.002L389.496 0.371094L408.501 44.7277H403.289L398.291 32.7044ZM396.447 28.3317L389.386 11.3731L382.147 28.3317H396.447Z" fill="#EEEEEE"/>
</svg>
