<svg xmlns="http://www.w3.org/2000/svg" width="24" height="24" viewBox="0 0 24 24" fill="none">
  <path d="M8 16.0001C8 18.8285 8 20.2428 8.87868 21.1214C9.75736 22.0001 11.1716 22.0001 14 22.0001H15C17.8284 22.0001 19.2426 22.0001 20.1213 21.1214C21 20.2428 21 18.8285 21 16.0001V8.00012C21 5.17169 21 3.75748 20.1213 2.8788C19.2426 2.00012 17.8284 2.00012 15 2.00012H14C11.1716 2.00012 9.75736 2.00012 8.87868 2.8788C8 3.75748 8 5.17169 8 8.00012" stroke="#1C274C" stroke-width="1.5" stroke-linecap="round"/>
  <path d="M8 19.5001C5.64298 19.5001 4.46447 19.5001 3.73223 18.7679C3 18.0357 3 16.8571 3 14.5001V9.50012C3 7.1431 3 5.96459 3.73223 5.23236C4.46447 4.50012 5.64298 4.50012 8 4.50012" stroke="#1C274C" stroke-width="1.5"/>
  <path d="M6 12.0001L15 12.0001M15 12.0001L12.5 14.5001M15 12.0001L12.5 9.50012" stroke="#1C274C" stroke-width="1.5" stroke-linecap="round" stroke-linejoin="round"/>
</svg>