<svg width="145" height="21" viewBox="0 0 145 21" fill="none" xmlns="http://www.w3.org/2000/svg">
<path d="M0 19.5684V0.892578H3.51113C5.06745 0.892578 6.41105 1.04906 7.54193 1.35933C8.67282 1.66961 9.74985 2.26318 10.7784 3.14274C11.8151 4.0331 12.5905 5.08533 13.1021 6.29675C13.6137 7.50817 13.8695 8.82751 13.8695 10.2548C13.8695 13.085 12.8544 15.4053 10.8269 17.2157C9.79294 18.1385 8.71052 18.7617 7.58232 19.0855C6.45413 19.4065 5.08091 19.5684 3.46267 19.5684H0ZM2.07598 17.6366H3.58383C4.84396 17.6366 5.93984 17.5017 6.87686 17.2292C7.81388 16.9567 8.6782 16.4495 9.46982 15.7021C10.2264 14.9925 10.8027 14.1642 11.1985 13.2199C11.5943 12.2756 11.7935 11.2773 11.7935 10.2305C11.7935 9.14588 11.5862 8.11523 11.1742 7.14124C10.7623 6.16455 10.1618 5.32816 9.37289 4.62937C8.58127 3.92518 7.72772 3.44762 6.81763 3.1967C5.90753 2.94848 4.8305 2.82168 3.58652 2.82168H2.07868V17.6366H2.07598Z" fill="#EEEEEE"/>
<path d="M17.9961 19.5684V0.892578H27.6652V2.82168H20.0721V8.37424H27.4417V10.3033H20.0721V17.6393H27.6652V19.5684H17.9961Z" fill="#EEEEEE"/>
<path d="M46.6437 2.39348V4.9701C45.9032 4.19577 45.0362 3.58871 44.0454 3.15163C43.0518 2.71454 42.0232 2.49601 40.957 2.49601C39.9365 2.49601 38.9698 2.69835 38.0571 3.10576C37.147 3.51316 36.3419 4.08245 35.6445 4.81092C34.9471 5.53669 34.4059 6.37039 34.0209 7.30661C33.6331 8.24283 33.442 9.21683 33.442 10.2286C33.442 11.5803 33.7812 12.8511 34.4624 14.0436C35.1437 15.2361 36.0645 16.1859 37.2277 16.8954C38.3909 17.605 39.6511 17.9612 41.0108 17.9612C42.0367 17.9612 43.0464 17.7372 44.0346 17.2867C45.0255 16.8388 45.8925 16.2344 46.641 15.4817V18.0583C45.8279 18.6465 44.942 19.0997 43.9807 19.4154C43.0222 19.7311 42.0555 19.8903 41.0808 19.8903C39.3576 19.8903 37.7501 19.4613 36.253 18.6033C34.7559 17.7453 33.5658 16.5798 32.6853 15.112C31.8049 13.6416 31.3633 12.0417 31.3633 10.3068C31.3633 8.5612 31.7995 6.93967 32.6719 5.44226C33.5443 3.94485 34.729 2.75771 36.2234 1.88354C37.7178 1.00938 39.336 0.572301 41.0781 0.572301C43.1514 0.566905 45.0066 1.17666 46.6437 2.39348Z" fill="#EEEEEE"/>
<path d="M62.1442 14.2645H54.1849L51.9339 19.5689H49.6641L58.2642 0L66.6489 19.5689H64.3494L62.1442 14.2645ZM61.331 12.3354L58.2157 4.85377L55.0223 12.3354H61.331Z" fill="#EEEEEE"/>
<path d="M69.9102 19.5684V0.892578H72.977C74.1887 0.892578 75.2549 1.05446 76.1785 1.37822C77.1021 1.70199 77.8371 2.24159 78.3837 2.99435C78.9303 3.7471 79.2023 4.72919 79.2023 5.94331C79.2023 7.55674 78.5937 8.77085 77.374 9.58296C78.0983 9.76103 78.7284 10.0848 79.2642 10.5543C79.8 11.0237 80.2066 11.5903 80.4893 12.2567C80.7694 12.9204 80.9121 13.6246 80.9121 14.3666C80.9121 16.1257 80.2955 17.4316 79.0596 18.2868C77.8237 19.1421 76.2162 19.5684 74.2371 19.5684H69.9102ZM71.9888 2.82168V9.11081H72.7805C73.7067 9.11081 74.4741 9.04336 75.088 8.90306C75.7019 8.76546 76.1946 8.46328 76.5716 8.00192C76.9459 7.54055 77.1317 6.85525 77.1317 5.94331C77.1317 5.05296 76.9567 4.38114 76.6093 3.92787C76.2593 3.4746 75.7854 3.17512 75.1876 3.03482C74.5872 2.89452 73.7956 2.82438 72.8101 2.82438H71.9888V2.82168ZM71.9888 10.8942V17.6366H74.0648C77.2475 17.6366 78.8388 16.4953 78.8388 14.2128C78.8388 12.915 78.3622 12.0382 77.4117 11.5795C76.4585 11.1208 75.2523 10.8915 73.7929 10.8915H71.9888V10.8942Z" fill="#EEEEEE"/>
<path d="M87.2674 11.3664V19.5684H85.1914V0.892578H87.8894C89.1953 0.892578 90.3531 1.04097 91.3574 1.32966C92.3645 1.62105 93.1722 2.14986 93.7888 2.91071C94.4027 3.67155 94.7097 4.7157 94.7097 6.04314C94.7097 6.74463 94.602 7.40025 94.3839 8.01001C94.1658 8.61977 93.8561 9.14858 93.4469 9.59915C93.0403 10.0497 92.5502 10.4113 91.9794 10.6838C91.4086 10.9563 90.7597 11.1262 90.0354 11.1937L95.9671 19.563H93.4199L87.7844 11.361H87.2674V11.3664ZM87.2674 2.82168V9.5344H87.9136C89.338 9.5344 90.4796 9.30507 91.3413 8.8491C92.2029 8.39313 92.631 7.50547 92.631 6.19153C92.631 4.80473 92.2217 3.89549 91.4059 3.4665C90.59 3.03751 89.4188 2.82168 87.8894 2.82168H87.2674Z" fill="#EEEEEE"/>
<path d="M101.955 0.892578V19.5684H99.8789V0.892578H101.955Z" fill="#EEEEEE"/>
<path d="M107.098 19.5679V0.101562L121.63 15.359V0.892086H123.706V20.407L109.174 5.17388V19.5679H107.098Z" fill="#EEEEEE"/>
<path d="M139.574 14.2645H131.615L129.364 19.5689H127.094L135.694 0L144.079 19.5689H141.779L139.574 14.2645ZM138.761 12.3354L135.645 4.85377L132.452 12.3354H138.761Z" fill="#EEEEEE"/>
</svg>
